<svg xmlns="http://www.w3.org/2000/svg" width="30.787" height="18.858" viewBox="0 0 30.787 18.858">
  <g id="Componente_1_1" data-name="Componente 1 – 1" transform="translate(0.301 0.303)">
    <g id="noun-box-2962114" transform="translate(0 0)">
      <path id="Caminho_845" data-name="Caminho 845" d="M185.53,225.3v12.6a.248.248,0,0,1-.317.237l-12.585-2.569.049-.241-.049.242a.247.247,0,0,1-.2-.245v-6.915a.248.248,0,0,1,.317-.237l10.15,2.068,2.159-5.046.227.1-.227-.1a.247.247,0,0,1,.475.1Zm-.492,12.3V226.5l-1.756,4.107a.248.248,0,0,1-.284.161h0l-10.07-2.056v6.414l12.11,2.471Z" transform="translate(-170.188 -219.907)" fill="#fff" stroke="#fff" stroke-width="0.6"/>
      <path id="Caminho_846" data-name="Caminho 846" d="M144.06,189.514l12.586,2.569-.049.241.049-.242a.247.247,0,0,1,.2.3.257.257,0,0,1-.023.065l-1.252,2.926-.979,2.287-.227-.1.227.1a.248.248,0,0,1-.3.14l-12.586-2.569.049-.241-.049.242a.247.247,0,0,1-.2-.3.256.256,0,0,1,.023-.064l2.23-5.218.227.1-.227-.1a.248.248,0,0,1,.3-.136Zm12.191,2.991-12.11-2.472L142.1,194.8l12.11,2.472Z" transform="translate(-141.505 -186.933)" fill="#fff" stroke="#fff" stroke-width="0.6"/>
      <path id="Caminho_847" data-name="Caminho 847" d="M347.078,226.5v11.1l12.11-2.471v-6.415l-10.07,2.056h0a.247.247,0,0,1-.284-.161l-1.756-4.107Zm-.492,11.4V225.3a.247.247,0,0,1,.475-.1l-.227.1.227-.1,2.159,5.046,10.15-2.068a.248.248,0,0,1,.317.237v6.915a.247.247,0,0,1-.2.245l-.049-.242.049.241L346.9,238.141a.248.248,0,0,1-.317-.237Z" transform="translate(-331.738 -219.899)" fill="#fff" stroke="#fff" stroke-width="0.6"/>
      <path id="Caminho_848" data-name="Caminho 848" d="M359.287,190.04l-12.11,2.472,2.04,4.768,1.322-.27,10.789-2.2-2.04-4.768Zm-12.458,2.291-.049-.241,12.586-2.569a.247.247,0,0,1,.3.14l-.227.1.227-.1,2.23,5.218a.248.248,0,0,1-.17.356l-.049-.242.049.241L349.654,197.7l-.519.106a.247.247,0,0,1-.3-.14l.227-.1-.227.1-2.231-5.218a.248.248,0,0,1,.17-.356Z" transform="translate(-331.736 -186.939)" fill="#fff" stroke="#fff" stroke-width="0.6"/>
      <path id="Caminho_849" data-name="Caminho 849" d="M172.642,156.56a.247.247,0,1,0,.1.483l12.6-2.573a.247.247,0,1,0-.1-.483Z" transform="translate(-170.203 -153.978)" fill="#fff" stroke="#fff" stroke-width="0.6"/>
      <path id="Caminho_850" data-name="Caminho 850" d="M359.4,157.033a.247.247,0,0,0,.1-.483l-12.6-2.573a.247.247,0,0,0-.1.483Z" transform="translate(-331.748 -153.972)" fill="#fff" stroke="#fff" stroke-width="0.6"/>
      <path id="Caminho_851" data-name="Caminho 851" d="M346.58,159.356a.247.247,0,1,0,.492,0V154.21a.247.247,0,0,0-.492,0Z" transform="translate(-331.734 -153.964)" fill="#fff" stroke="#fff" stroke-width="0.6"/>
    </g>
    <path id="Caminho_498" data-name="Caminho 498" d="M1.3,0,.3.151A.347.347,0,0,0,.1.741l.36.351.192.187A1.813,1.813,0,0,1,1.3,0" transform="translate(6.293 11.739) rotate(8)" fill="#fff"/>
    <path id="Caminho_499" data-name="Caminho 499" d="M72.7,75.712a.313.313,0,0,0,.284-.3.325.325,0,0,0-.233-.341,1.465,1.465,0,0,0-.477-.059.84.84,0,0,0-.734.667,3.194,3.194,0,0,0,1.16.03" transform="translate(-52.471 -71.825) rotate(8)" fill="#fff"/>
    <path id="Caminho_500" data-name="Caminho 500" d="M.453,1.01a1.725,1.725,0,0,1,1.083.079L1.1.194a.348.348,0,0,0-.623,0L0,1.16a2.039,2.039,0,0,1,.453-.15" transform="translate(8.141 10.535) rotate(8)" fill="#fff"/>
    <path id="Caminho_501" data-name="Caminho 501" d="M.562.329A1.163,1.163,0,0,1,.115,0L.078.217.005.642a.348.348,0,0,0,.505.366L1.486.5,1.509.483A2,2,0,0,1,.563.329" transform="translate(6.76 14.192) rotate(8)" fill="#fff"/>
    <path id="Caminho_502" data-name="Caminho 502" d="M3.127.143,2.143,0a.869.869,0,0,1,.166.751.8.8,0,0,1-.6.648,3.084,3.084,0,0,1-1.552.01L.048,1.384a.12.12,0,0,0-.035.007.5.5,0,0,0,.343.591c.5.172.966.244,2.146-.441a.331.331,0,0,1,.031-.033L3.319.739a.348.348,0,0,0-.2-.591" transform="translate(7.747 11.972) rotate(8)" fill="#fff"/>
    <path id="Caminho_503" data-name="Caminho 503" d="M1.438,0A5.628,5.628,0,0,1,.484.524,2.787,2.787,0,0,1,0,.649.343.343,0,0,1,.1.683l.976.513A.348.348,0,0,0,1.579.83Z" transform="translate(8.475 14.242) rotate(8)" fill="#fff"/>
  </g>
</svg>
