<svg xmlns="http://www.w3.org/2000/svg" width="142.4" height="55.808" viewBox="0 0 142.4 55.808">
  <g id="Grupo_980" data-name="Grupo 980" transform="translate(-77.356 -52.596)">
    <g id="Componente_55_7" data-name="Componente 55 – 7" transform="translate(77.356 56.596)">
      <path id="Caminho_893" data-name="Caminho 893" d="M12.78,63.08,2.924,64.514a3.413,3.413,0,0,0-1.891,5.829L4.573,73.8l1.885,1.839a17.831,17.831,0,0,1,6.322-12.55" transform="translate(0.005 -49.001)" fill="#fff"/>
      <path id="Caminho_894" data-name="Caminho 894" d="M82.778,81.783A3.029,3.029,0,0,0,85.524,78.9a3.146,3.146,0,0,0-2.254-3.3,14.184,14.184,0,0,0-4.62-.572,8.135,8.135,0,0,0-7.11,6.464c3.8.589,7.5,1.08,11.238.294" transform="translate(-56.337 -58.346)" fill="#fff"/>
      <path id="Caminho_895" data-name="Caminho 895" d="M80.164,9.927a16.973,16.973,0,0,1,10.7.743L86.55,1.9a3.416,3.416,0,0,0-6.127,0L75.74,11.4a20.055,20.055,0,0,1,4.424-1.472" transform="translate(-59.654 0.006)" fill="#fff"/>
      <path id="Caminho_896" data-name="Caminho 896" d="M42.111,169.238a11.442,11.442,0,0,1-4.4-3.238l-.367,2.135-.717,4.18a3.416,3.416,0,0,0,4.966,3.6l9.595-5.043c.078-.041.155-.078.235-.112a19.694,19.694,0,0,1-9.312-1.522" transform="translate(-28.807 -129.027)" fill="#fff"/>
      <path id="Caminho_897" data-name="Caminho 897" d="M98.033,64.608,88.345,63.2a8.55,8.55,0,0,1,1.637,7.392,7.838,7.838,0,0,1-5.907,6.371c-5.08,1.554-10.173,1.146-15.268.1-.363-.076-.723-.168-1.079-.237a1.179,1.179,0,0,0-.345.069,4.962,4.962,0,0,0,3.375,5.771c4.951,1.695,9.5,2.405,21.119-4.335a3.243,3.243,0,0,1,.3-.328l7.762-7.556a3.416,3.416,0,0,0-1.893-5.829" transform="translate(-53.323 -48.949)" fill="#fff"/>
      <path id="Caminho_898" data-name="Caminho 898" d="M128.474,157.41a55.363,55.363,0,0,1-9.381,5.156,27.4,27.4,0,0,1-4.763,1.233,3.386,3.386,0,0,1,.993.341l9.595,5.043a3.418,3.418,0,0,0,4.966-3.6Z" transform="translate(-90.054 -122.292)" fill="#fff"/>
    </g>
    <line id="Linha_135" data-name="Linha 135" y2="32" transform="translate(141.747 64.096)" fill="none" stroke="#fff" stroke-width="1" opacity="0.27"/>
    <g id="Grupo_7" data-name="Grupo 7" transform="translate(-25.017 -921.219)">
      <path id="Caminho_23" data-name="Caminho 23" d="M191.607,1248.2c-22.906,3.236-25.4,23.9-25.4,23.9v31.906h31.744s23.652-1.407,23.9-24.064,0-31.744,0-31.744Z" transform="translate(22.805 -274.385)" fill="#fff"/>
      <path id="path2" d="M216.388,401.444v3.347h-.553v-.559h-2.527a2.2,2.2,0,0,0-1.983,2.355l.046,1.456v.352h2.645a.542.542,0,0,0,.447-.15,1.445,1.445,0,0,0,.2-.557h.414v3.51h-.423a1.318,1.318,0,0,0-.191-.568.547.547,0,0,0-.455-.161h-2.864v5.777a1.136,1.136,0,0,0,.108.589.8.8,0,0,0,.423.268v.513H208.2v-.535a.848.848,0,0,0,.423-.257,1.074,1.074,0,0,0,.108-.578v-6.569a.744.744,0,0,0-.141-.513.944.944,0,0,0-.423-.236v-.535h.563v-.236a7.045,7.045,0,0,1,1.159-4.516,4.247,4.247,0,0,1,3.471-1.363h2.472v-.837Z" transform="translate(-13.543 591.923)" fill="#00557c"/>
      <path id="path4" d="M239.883,401.433v14.729a1.066,1.066,0,0,1-.124.62.974.974,0,0,1-.5.279v.559h4.09v-.559a1.031,1.031,0,0,1-.5-.268,1.008,1.008,0,0,1-.124-.6V402.882a1.066,1.066,0,0,1,.124-.62.974.974,0,0,1,.5-.279v-.559Z" transform="translate(-35.959 591.931)" fill="#00557c"/>
      <path id="path6" d="M265.08,423.121a3.522,3.522,0,0,0-.926-2.556,3.264,3.264,0,0,0-2.459-.958,3.73,3.73,0,0,0-1.385.248,2.964,2.964,0,0,0-1.065.714,3.263,3.263,0,0,0-.692,1.116,4.371,4.371,0,0,0,0,2.886,3.171,3.171,0,0,0,.692,1.1,3.031,3.031,0,0,0,1.065.7,3.728,3.728,0,0,0,1.385.248,3.284,3.284,0,0,0,2.459-.947,3.483,3.483,0,0,0,.926-2.55Zm2.96,0a5.838,5.838,0,0,1-.5,2.47,5.454,5.454,0,0,1-1.363,1.842,6.075,6.075,0,0,1-2.013,1.16,7.391,7.391,0,0,1-2.47.4,7.484,7.484,0,0,1-2.479-.4,6.059,6.059,0,0,1-2.023-1.16,5.33,5.33,0,0,1-1.352-1.842,6.445,6.445,0,0,1,0-4.93A5.409,5.409,0,0,1,257.2,418.8a5.96,5.96,0,0,1,2.023-1.171,7.484,7.484,0,0,1,2.479-.4,7.392,7.392,0,0,1,2.47.4,5.982,5.982,0,0,1,2.013,1.171,5.532,5.532,0,0,1,1.363,1.859,5.857,5.857,0,0,1,.5,2.459Z" transform="translate(-47.565 580.547)" fill="#00557c"/>
      <path id="path8" d="M305.645,427.213a.95.95,0,0,0,.124.584,1.377,1.377,0,0,0,.5.3v.55h-3.748V428.1a.881.881,0,0,0,.477-.264,1.145,1.145,0,0,0,.107-.595v-8.766a1.2,1.2,0,0,0-.115-.62.754.754,0,0,0-.468-.264v-.55h3.13v1.639l.533-.539a3.434,3.434,0,0,1,2.231-.854v-.549h.837v3.627h-.835v-.47c-1.913-.918-2.558,1.363-2.69,2.392a8.135,8.135,0,0,0-.071,1.035v3.9Z" transform="translate(-81.572 580.902)" fill="#00557c"/>
      <path id="path10" d="M337.4,422.4v-.837a3.006,3.006,0,0,0-.286-1.321,3.337,3.337,0,0,0-.744-1.013,3.29,3.29,0,0,0-1.035-.649,3.231,3.231,0,0,0-1.2-.23,3.619,3.619,0,0,0-1.487.248,3.361,3.361,0,0,0-1.145.76,3.43,3.43,0,0,0-.744,1.156,3.966,3.966,0,0,0-.264,1.464,4.116,4.116,0,0,0,.248,1.464,3.5,3.5,0,0,0,.715,1.166,3.194,3.194,0,0,0,1.123.771,3.547,3.547,0,0,0,1.475.248,3.315,3.315,0,0,0,1.211-.232,3.533,3.533,0,0,0,1.068-.65,3.17,3.17,0,0,0,.76-1.013A3.059,3.059,0,0,0,337.4,422.4Zm3.831,5.417H337.4V426.8a4.413,4.413,0,0,1-1.574.913,6.382,6.382,0,0,1-2.191.363,6.883,6.883,0,0,1-2.422-.419,5.685,5.685,0,0,1-1.949-1.2,5.532,5.532,0,0,1-1.3-1.915,6.6,6.6,0,0,1-.473-2.565,6.037,6.037,0,0,1,.517-2.555,5.584,5.584,0,0,1,1.4-1.894,6.222,6.222,0,0,1,2.014-1.178,7.011,7.011,0,0,1,2.389-.408,5.911,5.911,0,0,1,2.113.352,5.848,5.848,0,0,1,1.563.859v-.947h3.743v.55a1.16,1.16,0,0,0-.584.275.949.949,0,0,0-.143.606v8.763a.9.9,0,0,0,.143.595,1.239,1.239,0,0,0,.584.264Z" transform="translate(-99.58 581.465)" fill="#00557c"/>
    </g>
  </g>
</svg>
