<svg xmlns="http://www.w3.org/2000/svg" width="253.714" height="47.288" viewBox="0 0 253.714 47.288">
  <g id="Grupo_979" data-name="Grupo 979" transform="translate(-41.356 -56)">
    <g id="Componente_55_2" data-name="Componente 55 – 2" transform="translate(41.356 56)">
      <path id="Caminho_893" data-name="Caminho 893" d="M12.78,63.08,2.924,64.514a3.413,3.413,0,0,0-1.891,5.829L4.573,73.8l1.885,1.839a17.831,17.831,0,0,1,6.322-12.55" transform="translate(0.005 -49.001)" fill="#fff"/>
      <path id="Caminho_894" data-name="Caminho 894" d="M82.778,81.783A3.029,3.029,0,0,0,85.524,78.9a3.146,3.146,0,0,0-2.254-3.3,14.184,14.184,0,0,0-4.62-.572,8.135,8.135,0,0,0-7.11,6.464c3.8.589,7.5,1.08,11.238.294" transform="translate(-56.337 -58.346)" fill="#fff"/>
      <path id="Caminho_895" data-name="Caminho 895" d="M80.164,9.927a16.973,16.973,0,0,1,10.7.743L86.55,1.9a3.416,3.416,0,0,0-6.127,0L75.74,11.4a20.055,20.055,0,0,1,4.424-1.472" transform="translate(-59.654 0.006)" fill="#fff"/>
      <path id="Caminho_896" data-name="Caminho 896" d="M42.111,169.238a11.442,11.442,0,0,1-4.4-3.238l-.367,2.135-.717,4.18a3.416,3.416,0,0,0,4.966,3.6l9.595-5.043c.078-.041.155-.078.235-.112a19.694,19.694,0,0,1-9.312-1.522" transform="translate(-28.807 -129.027)" fill="#fff"/>
      <path id="Caminho_897" data-name="Caminho 897" d="M98.033,64.608,88.345,63.2a8.55,8.55,0,0,1,1.637,7.392,7.838,7.838,0,0,1-5.907,6.371c-5.08,1.554-10.173,1.146-15.268.1-.363-.076-.723-.168-1.079-.237a1.179,1.179,0,0,0-.345.069,4.962,4.962,0,0,0,3.375,5.771c4.951,1.695,9.5,2.405,21.119-4.335a3.243,3.243,0,0,1,.3-.328l7.762-7.556a3.416,3.416,0,0,0-1.893-5.829" transform="translate(-53.323 -48.949)" fill="#fff"/>
      <path id="Caminho_898" data-name="Caminho 898" d="M128.474,157.41a55.363,55.363,0,0,1-9.381,5.156,27.4,27.4,0,0,1-4.763,1.233,3.386,3.386,0,0,1,.993.341l9.595,5.043a3.418,3.418,0,0,0,4.966-3.6Z" transform="translate(-90.054 -122.292)" fill="#fff"/>
    </g>
    <line id="Linha_134" data-name="Linha 134" y2="32" transform="translate(108.747 63.5)" fill="none" stroke="#fff" stroke-width="1" opacity="0.27"/>
    <g id="layer1" transform="translate(297.813 -187.026)">
      <g id="g545" transform="translate(-169.32 247.026)">
        <path id="path386" d="M-152.559,278.172a4.833,4.833,0,0,1-2.584,1.023,4.253,4.253,0,0,1-3.831-1.424c-.771-.921-1.166-2.12-1.918-3.077a5.353,5.353,0,0,0-5.044-2.155,5.381,5.381,0,0,0-3.978,3.239,5.381,5.381,0,0,0,.544,5.1c3.125,4.471,10.154,3.7,13.762.6a17.464,17.464,0,0,0,3.052-3.305" transform="translate(170.32 -251.723)" fill="#fff"/>
        <path id="path388" d="M4.989,278.171a4.81,4.81,0,0,0,2.584,1.023,4.246,4.246,0,0,0,3.83-1.424c.77-.921,1.168-2.12,1.918-3.077a5.353,5.353,0,0,1,5.045-2.155,5.38,5.38,0,0,1,3.434,8.34c-3.124,4.47-10.152,3.7-13.758.6A17.425,17.425,0,0,1,4.99,278.17" transform="translate(143.827 -251.723)" fill="#fff"/>
        <path id="path390" d="M-12.192,251.092h-9.414a2.071,2.071,0,0,0-1.9,1.932,2.077,2.077,0,0,0,1.9,2.094h9.414a2.071,2.071,0,0,0,1.9-1.932,2.075,2.075,0,0,0-1.9-2.094" transform="translate(148.132 -248.489)" fill="#fff"/>
        <path id="path392" d="M-82.549,272.144a9.513,9.513,0,0,1-.235-1.592c-.006-.766-.006-1.843-.006-2.829.1-3.415.734-9.424-3.9-9.424-3.129,0-4.982,2.633-5.508,3.493-.075-2.4-1.968-4.141-4.858-4.141a3.954,3.954,0,0,0-2.946,1.47,3.056,3.056,0,0,1,1.8,3.042c.019,1.732,0,10.164,0,10.2a2.911,2.911,0,0,0,.883,2.074,2.911,2.911,0,0,0,2.1.821,2.926,2.926,0,0,0,2.124-.811,2.927,2.927,0,0,0,.9-2.087v-7.479c.261-1.222.948-2.47,1.985-2.47,1.345,0,1.424,1.5,1.424,1.5l-.006,7.239a4.371,4.371,0,0,0,.077.683,3.736,3.736,0,0,0,.344,1.05,4.686,4.686,0,0,0,4.44,2.408,3.955,3.955,0,0,0,2.94-1.468,2.872,2.872,0,0,1-1.566-1.675" transform="translate(159.693 -249.481)" fill="#fff"/>
        <path id="path394" d="M-28.151,270.69a9.156,9.156,0,0,1-.235-1.592l.005-17.917a3.155,3.155,0,0,0-3.155-3.155,3.155,3.155,0,0,0-3.155,3.155v15.868a9.1,9.1,0,0,0,.55,4.2,5.082,5.082,0,0,0,4.607,2.582,3.951,3.951,0,0,0,2.944-1.468,2.879,2.879,0,0,1-1.566-1.675" transform="translate(149.824 -248.026)" fill="#fff"/>
        <path id="path396" d="M-111.569,258.233a8.572,8.572,0,0,0-8.573,8.574,8.571,8.571,0,0,0,8.571,8.57A8.573,8.573,0,0,0-103,266.8a8.573,8.573,0,0,0-8.573-8.573m.063,13.5v0h-.036v0c-1.618-.029-2.429-1.889-2.429-4.931s1.028-4.9,2.429-4.933h.037c1.4.034,2.429,1.9,2.429,4.933s-.81,4.9-2.429,4.931" transform="translate(162.737 -249.568)" fill="#fff"/>
        <path id="path398" d="M-59.87,270.69A9.1,9.1,0,0,1-60.1,269.1V251.181a3.155,3.155,0,0,0-3.155-3.155,3.155,3.155,0,0,0-3.155,3.155l-.013,8.486a6.345,6.345,0,0,0-5.064-2.842c-7.246,0-7.706,12.9-2.735,16.1a6.933,6.933,0,0,0,5.11.715c1.1-.288,2.848-1.372,3.124-2.667q.06.142.131.284a5.082,5.082,0,0,0,4.607,2.582,3.952,3.952,0,0,0,2.944-1.468,2.879,2.879,0,0,1-1.566-1.675m-9.4-1.043h-.037c-1.619-.024-2.429-1.647-2.429-4.3s1.027-4.267,2.429-4.3h.037c1.4.029,2.429,1.651,2.429,4.3s-.812,4.272-2.429,4.3" transform="translate(156.296 -248.026)" fill="#fff"/>
        <path id="path400" d="M-40.057,270.091s-.921,1.268-4.515,1.268a4.242,4.242,0,0,1-4.36-2.791c5.231,0,9.62-.35,9.62-4.586s-4.787-5.632-7.623-5.632c-4.691,0-8.111,3.738-8.111,8.671a8.165,8.165,0,0,0,2.314,5.909,8.165,8.165,0,0,0,5.847,2.467c6.519,0,6.832-5.3,6.832-5.3Zm-9.214-4.241c.183-1.352.508-3.056,1.724-3.845a1.612,1.612,0,0,1,1.615-.031,1.612,1.612,0,0,1,.831,1.385,2.429,2.429,0,0,1-2.041,2.5,9.449,9.449,0,0,1-2.129,0" transform="translate(152.9 -249.586)" fill="#fff"/>
        <path id="path402" d="M-10.321,270.091s-.921,1.268-4.515,1.268a4.242,4.242,0,0,1-4.36-2.791c5.231,0,9.62-.35,9.62-4.586s-4.787-5.632-7.623-5.632c-4.691,0-8.111,3.738-8.111,8.671A8.165,8.165,0,0,0-23,272.931,8.165,8.165,0,0,0-17.15,275.4c6.519,0,6.832-5.3,6.832-5.3Zm-9.214-4.24c.183-1.352.508-3.056,1.724-3.845a1.612,1.612,0,0,1,1.615-.031,1.612,1.612,0,0,1,.831,1.385,2.429,2.429,0,0,1-2.041,2.5,9.452,9.452,0,0,1-2.129,0" transform="translate(148.406 -249.586)" fill="#fff"/>
        <path id="path404" d="M4.333,270.445H.738a37.076,37.076,0,0,0,3.805-2.99C6.853,265.5,11.006,262.668,9.8,259v.026a2.7,2.7,0,0,0-.894-1.375,1.891,1.891,0,0,1-1.1,1.031,5.967,5.967,0,0,1-1.045.168c-.287.005-10.052,0-10.052,0a2.429,2.429,0,0,0-2.445,2.313,2.316,2.316,0,0,0,.7,1.642,2.316,2.316,0,0,0,1.663.652l5.7.036c-2.639,1.472-5.792,3.216-7.392,5.878-.914,1.528-1.892,3.883-1.52,5.69A9.684,9.684,0,0,1,.518,273.39a9.012,9.012,0,0,1,2.77,1.192c4.74,2.965,7.589-2.834,5.322-5.39a6.3,6.3,0,0,1-4.282,1.256" transform="translate(145.59 -249.481)" fill="#fff"/>
        <path id="path406" d="M-125.228,272.825c-2.907-3.188-3.817-8.49-4-12.014-.154-3.044.01-8.317,2.409-9.851a4.775,4.775,0,0,0-3.591-1.416c-2.7,0-4.009,1.8-4.934,3.1-.306.428-4.853,6.7-4.853,6.7s-3.826-5.918-4.3-6.629c-.65-.981-1.866-2.784-4-3.1-.921-.135-3.31-.256-4.607,1.528,2.242,1.793,2.185,6.359,1.7,9.477-1.46,9.358-5.445,10.219-5.445,10.219,2.04,5.508,7.293,3.332,8.777-1.06a37.317,37.317,0,0,0,1.726-9.466l5.765,8.843s6.527-8.815,6.527-8.807c-1.075,15.59,4.279,20.01,8.963,20.01a6.883,6.883,0,0,0,6.282-4.285,9.507,9.507,0,0,1-6.417-3.253" transform="translate(168.284 -248.254)" fill="#fff"/>
        <path id="path408" d="M-102.488,282.7a3.905,3.905,0,0,1,.1.681c0,.069,0,8.156,0,8.253a1.389,1.389,0,0,0,1.3,1.272,1.393,1.393,0,0,0,1.4-1.272v-7.376a3.885,3.885,0,0,0-.235-1.8,2.178,2.178,0,0,0-1.973-1.107,1.692,1.692,0,0,0-1.257.628,1.231,1.231,0,0,1,.67.718" transform="translate(160.169 -253.062)" fill="#fff"/>
        <path id="path410" d="M-2.154,291.565a3.925,3.925,0,0,1-.1-.681v-8.252a1.391,1.391,0,0,0-1.3-1.273,1.394,1.394,0,0,0-1.4,1.273V290a3.9,3.9,0,0,0,.235,1.8,2.178,2.178,0,0,0,1.973,1.106,1.69,1.69,0,0,0,1.256-.628,1.234,1.234,0,0,1-.67-.719" transform="translate(145.333 -253.063)" fill="#fff"/>
        <path id="path412" d="M-60.058,286.229a3.066,3.066,0,0,0-2.466,1.561l-.008.006v-.715a1.34,1.34,0,0,0-1.3-1.218,1.348,1.348,0,0,0-1.4,1.218v5.232a1.39,1.39,0,0,0,1.3,1.271,1.392,1.392,0,0,0,1.4-1.271v-3.133l.011-.008c.116-.548.424-1.107.89-1.107.6,0,.636.67.639.67L-61,292.313a1.39,1.39,0,0,0,1.3,1.271,1.392,1.392,0,0,0,1.4-1.271v-1.869c0-1.922.2-4.228-1.751-4.219" transform="translate(154.438 -253.744)" fill="#fff"/>
        <path id="path414" d="M-19.451,286.23a3.066,3.066,0,0,0-2.468,1.565l-.008.006v-.715a1.34,1.34,0,0,0-1.3-1.218,1.348,1.348,0,0,0-1.4,1.218v5.232a1.389,1.389,0,0,0,1.3,1.271,1.393,1.393,0,0,0,1.4-1.271v-3.133l.011-.008c.116-.548.424-1.107.89-1.107.6,0,.636.67.638.67l-.006,3.576a1.389,1.389,0,0,0,1.3,1.271,1.393,1.393,0,0,0,1.4-1.271v-1.869c0-1.922.2-4.228-1.751-4.219" transform="translate(148.302 -253.744)" fill="#fff"/>
        <path id="path416" d="M-92.311,286.23a3.066,3.066,0,0,0-2.468,1.565l-.008.006v-.715a1.34,1.34,0,0,0-1.3-1.218,1.348,1.348,0,0,0-1.4,1.218c0,.092,0,5.163,0,5.232a1.39,1.39,0,0,0,1.3,1.271,1.393,1.393,0,0,0,1.4-1.271v-3.133l.012-.008c.116-.548.424-1.107.89-1.107.6,0,.636.67.639.67l-.006,3.576a1.389,1.389,0,0,0,1.3,1.271,1.392,1.392,0,0,0,1.4-1.271v-1.869c0-1.922.2-4.228-1.751-4.219" transform="translate(159.312 -253.744)" fill="#fff"/>
        <path id="path418" d="M-30.731,285.891a3.841,3.841,0,0,0-3.841,3.841,3.84,3.84,0,0,0,3.842,3.84,3.841,3.841,0,0,0,3.841-3.841,3.841,3.841,0,0,0-3.841-3.841m.028,6.05h-.016c-.726-.014-1.089-.846-1.089-2.209s.46-2.195,1.089-2.21h.016c.627.015,1.089.849,1.089,2.21s-.363,2.195-1.089,2.209" transform="translate(149.805 -253.748)" fill="#fff"/>
        <path id="path420" d="M-48.334,286.953A1.467,1.467,0,0,0-49.7,285.62a1.459,1.459,0,0,0-1.468,1.333c0,.052-.007.162-.007.182a2.848,2.848,0,0,0-2.27-1.273c-3.247,0-3.452,5.78-1.225,7.211a3.111,3.111,0,0,0,2.292.32,2.355,2.355,0,0,0,1.272-.892,1.486,1.486,0,0,0,1.307,1.029,1.458,1.458,0,0,0,1.468-1.332v-5.245m-4.12,4.653h-.016c-.725-.012-1.089-.739-1.089-1.927s.46-1.912,1.089-1.927h.016c.628.013,1.089.74,1.089,1.927s-.364,1.914-1.089,1.927" transform="translate(153.066 -253.707)" fill="#fff"/>
        <path id="path422" d="M-7.76,286.953a1.465,1.465,0,0,0-1.367-1.333,1.459,1.459,0,0,0-1.468,1.333c0,.052-.008.162-.008.182a2.841,2.841,0,0,0-2.268-1.273c-3.247,0-3.453,5.78-1.225,7.211a3.109,3.109,0,0,0,2.291.32,2.355,2.355,0,0,0,1.273-.892,1.486,1.486,0,0,0,1.3,1.029A1.458,1.458,0,0,0-7.762,292.2c0-.1,0-5.18,0-5.245m-4.119,4.653H-11.9c-.725-.012-1.089-.739-1.089-1.927s.46-1.912,1.089-1.927h.017c.628.013,1.089.74,1.089,1.927s-.364,1.914-1.089,1.927" transform="translate(146.935 -253.707)" fill="#fff"/>
        <path id="path424" d="M-36.048,287.817a1.323,1.323,0,0,0-1.222-1.251,1.1,1.1,0,0,0-.115-.013,1.375,1.375,0,0,0-1.356,1.173v2.487h0c.008.776,0,2.178,0,2.193a1.323,1.323,0,0,0,1.221,1.251.9.9,0,0,0,.116.013,1.375,1.375,0,0,0,1.356-1.173V290.42h0c-.009-.777,0-2.587,0-2.6" transform="translate(150.435 -253.848)" fill="#fff"/>
        <path id="path426" d="M-36.057,283.84a1.34,1.34,0,0,1-1.34,1.335,1.335,1.335,0,0,1-.947-.389,1.335,1.335,0,0,1-.393-.946,1.34,1.34,0,0,1,1.34-1.34,1.34,1.34,0,0,1,1.34,1.34" transform="translate(150.435 -253.236)" fill="#fff"/>
        <path id="path428" d="M-68.551,286.136c-.8.033-1.2.629-1.741,1.379v-.359a1.39,1.39,0,0,0-1.294-1.272,1.392,1.392,0,0,0-1.4,1.272v5.178h0a1.388,1.388,0,0,0,1.3,1.272,1.394,1.394,0,0,0,1.4-1.252h.006v-3.28c.041-.481.251-1.081.637-1.079.547.005-.018,1.328,1.237,1.328,1.8,0,1.993-3.274-.134-3.183" transform="translate(155.611 -253.747)" fill="#fff"/>
        <path id="path430" d="M-75.438,291.2s-.419.569-2.025.569a1.907,1.907,0,0,1-1.957-1.251c2.345,0,4.316-.157,4.316-2.057s-2.147-2.526-3.42-2.526a3.673,3.673,0,0,0-2.654,1.164,3.673,3.673,0,0,0-.985,2.726,3.663,3.663,0,0,0,1.039,2.65,3.663,3.663,0,0,0,2.623,1.106c2.924,0,3.064-2.379,3.064-2.379Zm-4.134-1.9a2.359,2.359,0,0,1,.774-1.725.723.723,0,0,1,.725-.014.723.723,0,0,1,.373.621,1.089,1.089,0,0,1-.916,1.12,4.257,4.257,0,0,1-.956,0" transform="translate(156.999 -253.754)" fill="#fff"/>
        <path id="path432" d="M-83.3,291.849a2.558,2.558,0,0,1-2,1.42,2.536,2.536,0,0,1-2.434-2.306c0-.013-.008-1.975-.013-3.615h-.362a.53.53,0,0,1-.4-.183.53.53,0,0,1-.124-.422.549.549,0,0,1,.147-.425.549.549,0,0,1,.416-.172h.32v-.992a1.388,1.388,0,0,1,1.4-1.268,1.4,1.4,0,0,1,1.307,1.269v.992H-83.9a.54.54,0,0,1,.4.186.539.539,0,0,1,.128.419.539.539,0,0,1-.144.429.539.539,0,0,1-.42.169h-1.1v3.016a1.569,1.569,0,0,0,.55,1.123,1.569,1.569,0,0,0,1.2.365" transform="translate(157.976 -253.444)" fill="#fff"/>
        <path id="path434" d="M-40.8,291.849a2.559,2.559,0,0,1-2,1.42,2.535,2.535,0,0,1-2.434-2.306c0-.013-.008-1.975-.013-3.615h-.362a.53.53,0,0,1-.4-.183.53.53,0,0,1-.124-.422.549.549,0,0,1,.147-.425.549.549,0,0,1,.416-.172h.32v-.992a1.389,1.389,0,0,1,1.4-1.268,1.4,1.4,0,0,1,1.307,1.269v.992H-41.4a.54.54,0,0,1,.4.186.539.539,0,0,1,.128.419.539.539,0,0,1-.144.429.539.539,0,0,1-.42.169h-1.1v3.016a1.569,1.569,0,0,0,.55,1.123,1.569,1.569,0,0,0,1.2.365" transform="translate(151.553 -253.444)" fill="#fff"/>
      </g>
    </g>
  </g>
</svg>
