<svg xmlns="http://www.w3.org/2000/svg" width="330.89" height="47.288" viewBox="0 0 330.89 47.288">
  <g id="Grupo_978" data-name="Grupo 978" transform="translate(-41.356 -56)">
    <g id="Componente_55_3" data-name="Componente 55 – 3" transform="translate(41.356 56)">
      <path id="Caminho_893" data-name="Caminho 893" d="M12.78,63.08,2.924,64.514a3.413,3.413,0,0,0-1.891,5.829L4.573,73.8l1.885,1.839a17.831,17.831,0,0,1,6.322-12.55" transform="translate(0.005 -49.001)" fill="#fff"/>
      <path id="Caminho_894" data-name="Caminho 894" d="M82.778,81.783A3.029,3.029,0,0,0,85.524,78.9a3.146,3.146,0,0,0-2.254-3.3,14.184,14.184,0,0,0-4.62-.572,8.135,8.135,0,0,0-7.11,6.464c3.8.589,7.5,1.08,11.238.294" transform="translate(-56.337 -58.346)" fill="#fff"/>
      <path id="Caminho_895" data-name="Caminho 895" d="M80.164,9.927a16.973,16.973,0,0,1,10.7.743L86.55,1.9a3.416,3.416,0,0,0-6.127,0L75.74,11.4a20.055,20.055,0,0,1,4.424-1.472" transform="translate(-59.654 0.006)" fill="#fff"/>
      <path id="Caminho_896" data-name="Caminho 896" d="M42.111,169.238a11.442,11.442,0,0,1-4.4-3.238l-.367,2.135-.717,4.18a3.416,3.416,0,0,0,4.966,3.6l9.595-5.043c.078-.041.155-.078.235-.112a19.694,19.694,0,0,1-9.312-1.522" transform="translate(-28.807 -129.027)" fill="#fff"/>
      <path id="Caminho_897" data-name="Caminho 897" d="M98.033,64.608,88.345,63.2a8.55,8.55,0,0,1,1.637,7.392,7.838,7.838,0,0,1-5.907,6.371c-5.08,1.554-10.173,1.146-15.268.1-.363-.076-.723-.168-1.079-.237a1.179,1.179,0,0,0-.345.069,4.962,4.962,0,0,0,3.375,5.771c4.951,1.695,9.5,2.405,21.119-4.335a3.243,3.243,0,0,1,.3-.328l7.762-7.556a3.416,3.416,0,0,0-1.893-5.829" transform="translate(-53.323 -48.949)" fill="#fff"/>
      <path id="Caminho_898" data-name="Caminho 898" d="M128.474,157.41a55.363,55.363,0,0,1-9.381,5.156,27.4,27.4,0,0,1-4.763,1.233,3.386,3.386,0,0,1,.993.341l9.595,5.043a3.418,3.418,0,0,0,4.966-3.6Z" transform="translate(-90.054 -122.292)" fill="#fff"/>
    </g>
    <line id="Linha_134" data-name="Linha 134" y2="32" transform="translate(105.747 63.5)" fill="none" stroke="#fff" stroke-width="1" opacity="0.27"/>
    <g id="logo-pernod___7c069265a9647281722b03ee1940d6b5" transform="translate(126.501 64.004)">
      <g id="Pernod_Ricard_logo_2019" transform="translate(40.592 5.849)">
        <path id="Caminho_1" data-name="Caminho 1" d="M424.483,284.147c0,3.849,2.26,5.823,5.01,5.823s5-1.974,5-5.823c0-3.749-2.252-5.723-5-5.723S424.483,280.4,424.483,284.147Zm12.08,5.527h2.357v1.974h-4.425v-2.171a6.167,6.167,0,0,1-5.2,2.467c-4.225,0-6.974-3.356-6.974-7.8s2.749-7.8,6.974-7.8a6.02,6.02,0,0,1,5.106,2.467V272.7h-2.357v-1.973h4.52Z" transform="translate(-233.766 -270.723)" fill="#fff"/>
        <path id="Caminho_2" data-name="Caminho 2" d="M181.491,312.425h2.358V314.4h-6.973v-1.974h2.357V301.373h-2.357V299.5h4.418v2.073a4.848,4.848,0,0,1,5.991-2.073v2.163c-3.535-.986-5.795.889-5.795,4.342Z" transform="translate(0.186 -293.471)" fill="#fff"/>
        <g id="Grupo_4" data-name="Grupo 4" transform="translate(0 0)">
          <path id="Caminho_14" data-name="Caminho 14" d="M4.913,273.323V282.2H8.539c3.929,0,5.7-1.579,5.7-4.445s-1.669-4.445-5.7-4.445Zm0,16.678H7.464v2.073H0V290H2.552V273.224H0V271.25H8.539c4.714,0,7.954,2.073,7.954,6.513s-3.24,6.512-7.954,6.512H4.913Z" transform="translate(0 -271.142)" fill="#fff"/>
          <path id="Caminho_15" data-name="Caminho 15" d="M102.717,305.8a4.913,4.913,0,1,0-9.826,0Zm1.769,4.046c-.688,2.565-3.041,4.54-6.678,4.54-4.42,0-7.169-2.763-7.169-7.8,0-4.736,2.847-7.8,7.169-7.8,4.713,0,7.66,3.652,7.071,8.981H92.9a4.818,4.818,0,0,0,4.913,4.638,4.409,4.409,0,0,0,4.32-2.565Z" transform="translate(-72.472 -293.164)" fill="#fff"/>
          <path id="b" d="M181.491,312.425h2.358V314.4h-6.973v-1.974h2.357V301.373h-2.357V299.5h4.418v2.073a4.848,4.848,0,0,1,5.991-2.073v2.163c-3.535-.986-5.795.889-5.795,4.342Z" transform="translate(-141.423 -293.47)" fill="#fff"/>
          <path id="Caminho_16" data-name="Caminho 16" d="M253.886,312.507h2.357v1.974h-6.876v-1.973h2.358v-6.316c0-3.453-2.063-4.934-4.42-4.934-2.259,0-4.221,1.579-4.221,5.132v6.119h2.357v1.974h-6.874v-1.973h2.357V301.457h-2.357v-1.872h4.42v2.073a5.715,5.715,0,0,1,4.811-2.369c3.241,0,6.09,1.872,6.09,6.908Z" transform="translate(-190.748 -293.555)" fill="#fff"/>
          <path id="Caminho_17" data-name="Caminho 17" d="M344.3,312.414c2.945,0,5.009-2.073,5.009-5.823s-2.063-5.723-5.009-5.723c-2.847,0-5.008,1.974-5.008,5.723S341.455,312.414,344.3,312.414Zm0-13.619c4.616,0,7.267,3.356,7.267,7.8,0,4.54-2.652,7.8-7.267,7.8-4.516,0-7.169-3.258-7.169-7.8,0-4.44,2.652-7.8,7.169-7.8Z" transform="translate(-269.559 -293.166)" fill="#fff"/>
          <path id="a" d="M424.483,284.147c0,3.849,2.26,5.823,5.01,5.823s5-1.974,5-5.823c0-3.749-2.252-5.723-5-5.723S424.483,280.4,424.483,284.147Zm12.08,5.527h2.357v1.974h-4.425v-2.171a6.167,6.167,0,0,1-5.2,2.467c-4.225,0-6.974-3.356-6.974-7.8s2.749-7.8,6.974-7.8a6.02,6.02,0,0,1,5.106,2.467V272.7h-2.357v-1.973h4.52Z" transform="translate(-337.673 -270.723)" fill="#fff"/>
          <path id="Caminho_18" data-name="Caminho 18" d="M559.513,272.929v7.7h4.805c3.142,0,4.425-1.481,4.425-3.85,0-2.268-1.287-3.848-4.425-3.848Zm-4.913-2.171h9.709c3.928,0,6.784,2.171,6.784,6.019,0,3.356-2.068,5.33-5.106,5.922l3.338,6.908h2.749v2.073h-4.32l-4.32-8.882h-3.922v6.809h2.252v2.073H554.6v-2.073h2.553V272.831H554.6Z" transform="translate(-443.442 -270.749)" fill="#fff"/>
          <path id="Caminho_19" data-name="Caminho 19" d="M657.183,273.574h2.456v-2.861h-2.456Zm2.456,16.086H662v1.976h-6.979v-1.974h2.357V278.609h-2.357v-1.872h4.622Z" transform="translate(-523.73 -270.713)" fill="#fff"/>
          <path id="Caminho_20" data-name="Caminho 20" d="M714.463,308.655a6.842,6.842,0,0,1-7.174,5.725c-4.516,0-7.174-3.258-7.174-7.8,0-4.445,2.658-7.8,7.174-7.8a6.1,6.1,0,0,1,5.015,2.467V299.18h2.055v5.429H712a4.782,4.782,0,0,0-4.713-3.75c-2.854,0-5.014,1.974-5.014,5.723s2.16,5.823,5.015,5.823a4.981,4.981,0,0,0,4.913-3.75Z" transform="translate(-559.784 -293.16)" fill="#fff"/>
          <path id="Caminho_21" data-name="Caminho 21" d="M787.165,306.584c0,3.85,2.16,5.823,4.913,5.823s5-1.974,5-5.823c0-3.749-2.252-5.723-5-5.723S787.165,302.835,787.165,306.584Zm9.819-7.4H801.5v1.872h-2.357v11.053H801.5v1.974h-4.516v-2.171a5.9,5.9,0,0,1-5.106,2.467c-4.228,0-6.979-3.356-6.979-7.8s2.749-7.8,6.977-7.8a5.9,5.9,0,0,1,5.106,2.467Z" transform="translate(-627.576 -293.161)" fill="#fff"/>
        </g>
      </g>
      <g id="Grupo_6" data-name="Grupo 6" transform="translate(-0.001 -0.004)">
        <g id="Grupo_5" data-name="Grupo 5" transform="translate(33.882 28.083) rotate(180)">
          <g id="Grupo_1" data-name="Grupo 1" transform="translate(0.208 10.043)">
            <path id="Caminho_3" data-name="Caminho 3" d="M5.667,2.78A14.537,14.537,0,0,0,10.189,0a8.5,8.5,0,0,0,.539,2.441A11,11,0,0,1,7.286,5.9,16.818,16.818,0,0,1,1.35,8.339,14.878,14.878,0,0,1,0,3.86,14.014,14.014,0,0,0,5.667,2.775Z" transform="translate(0 0)" fill="#fff"/>
            <path id="Caminho_4" data-name="Caminho 4" d="M4.521,5.153A15.588,15.588,0,0,0,8.093,0,6.083,6.083,0,0,0,9.981,2.034,24.045,24.045,0,0,1,7.418,7.322a18.949,18.949,0,0,1-4.113,4.141A17.078,17.078,0,0,1,0,8.137,18.912,18.912,0,0,0,4.521,5.153Z" transform="translate(3.102 3.246)" fill="#fff"/>
            <path id="Caminho_5" data-name="Caminho 5" d="M2.428,5.966A24.127,24.127,0,0,0,3.913,0a7.734,7.734,0,0,0,2.7.819A28.388,28.388,0,0,1,6,6.784a40.034,40.034,0,0,1-1.548,5.627A14.406,14.406,0,0,1,0,11.186S1.619,8.071,2.428,5.966Z" transform="translate(9.78 5.627)" fill="#fff"/>
          </g>
          <path id="Caminho_6" data-name="Caminho 6" d="M6.41,2.509A13.87,13.87,0,0,0,13.022,3.73,6.9,6.9,0,0,0,10.054,5.9a20.87,20.87,0,0,1-5.129-.068A13.116,13.116,0,0,1,0,3.933,15.413,15.413,0,0,1,2.631,0,14.527,14.527,0,0,0,6.41,2.509Z" transform="translate(1.697 0)" fill="#fff"/>
          <path id="Caminho_7" data-name="Caminho 7" d="M5.6,1.221A15.3,15.3,0,0,0,11.2.474a6.453,6.453,0,0,0-.746,2.509A17.755,17.755,0,0,1,5.33,4.813,12.42,12.42,0,0,1,0,4.611,17.791,17.791,0,0,1,.742,0,13.528,13.528,0,0,0,5.6,1.221Z" transform="translate(0 6.246)" fill="#fff"/>
        </g>
        <g id="c" transform="translate(0 0.005)">
          <g id="Grupo_3" data-name="Grupo 3" transform="translate(0.212 0)">
            <path id="Caminho_8" data-name="Caminho 8" d="M394.711,76.38a14.537,14.537,0,0,1,4.522,2.78,8.5,8.5,0,0,1,.539-2.441,11,11,0,0,0-3.443-3.458A16.819,16.819,0,0,0,390.4,70.82a14.876,14.876,0,0,0-1.35,4.474,14.014,14.014,0,0,1,5.667,1.085Z" transform="translate(-389.046 -61.124)" fill="#fff"/>
            <path id="Caminho_9" data-name="Caminho 9" d="M416.091,30.907a15.588,15.588,0,0,1,3.572,5.156,6.082,6.082,0,0,1,1.889-2.034,24.045,24.045,0,0,0-2.564-5.288A18.949,18.949,0,0,0,414.88,24.6a17.077,17.077,0,0,0-3.306,3.322,18.912,18.912,0,0,1,4.521,2.984Z" transform="translate(-408.471 -21.271)" fill="#fff"/>
            <path id="Caminho_10" data-name="Caminho 10" d="M462.493,6.859a24.128,24.128,0,0,1,1.484,5.966,7.734,7.734,0,0,1,2.7-.819,28.391,28.391,0,0,0-.612-5.966A40.045,40.045,0,0,0,464.517.417a14.406,14.406,0,0,0-4.452,1.221S461.684,4.757,462.493,6.859Z" transform="translate(-450.286 -0.417)" fill="#fff"/>
          </g>
          <path id="Caminho_11" data-name="Caminho 11" d="M406.266,164.033a13.87,13.87,0,0,1,6.612-1.221,6.9,6.9,0,0,1-2.969-2.17,20.871,20.871,0,0,0-5.129.068,13.116,13.116,0,0,0-4.924,1.9,15.414,15.414,0,0,0,2.631,3.933,14.529,14.529,0,0,1,3.778-2.509Z" transform="translate(-398.158 -138.465)" fill="#fff"/>
          <path id="Caminho_12" data-name="Caminho 12" d="M393.134,126.54a15.3,15.3,0,0,1,5.6.746,6.452,6.452,0,0,1-.746-2.509,17.756,17.756,0,0,0-5.125-1.831,12.42,12.42,0,0,0-5.33.2,17.792,17.792,0,0,0,.742,4.611,13.529,13.529,0,0,1,4.858-1.221Z" transform="translate(-387.533 -105.928)" fill="#fff"/>
        </g>
        <path id="Caminho_22" data-name="Caminho 22" d="M442.085,182.711a8.051,8.051,0,0,1,6.89,4.135,17.32,17.32,0,0,0,4.11-2.573,14.361,14.361,0,0,0-21.926,0,16.173,16.173,0,0,0,4.117,2.573,7.988,7.988,0,0,1,6.809-4.135Z" transform="translate(-425.151 -154.559)" fill="#fff"/>
      </g>
    </g>
  </g>
</svg>
