<svg xmlns="http://www.w3.org/2000/svg" width="242.652" height="47.288" viewBox="0 0 242.652 47.288">
  <g id="Grupo_981" data-name="Grupo 981" transform="translate(-75.356 -56)">
    <g id="Componente_55_5" data-name="Componente 55 – 5" transform="translate(75.356 56)">
      <path id="Caminho_893" data-name="Caminho 893" d="M12.78,63.08,2.924,64.514a3.413,3.413,0,0,0-1.891,5.829L4.573,73.8l1.885,1.839a17.831,17.831,0,0,1,6.322-12.55" transform="translate(0.005 -49.001)" fill="#fff"/>
      <path id="Caminho_894" data-name="Caminho 894" d="M82.778,81.783A3.029,3.029,0,0,0,85.524,78.9a3.146,3.146,0,0,0-2.254-3.3,14.184,14.184,0,0,0-4.62-.572,8.135,8.135,0,0,0-7.11,6.464c3.8.589,7.5,1.08,11.238.294" transform="translate(-56.337 -58.346)" fill="#fff"/>
      <path id="Caminho_895" data-name="Caminho 895" d="M80.164,9.927a16.973,16.973,0,0,1,10.7.743L86.55,1.9a3.416,3.416,0,0,0-6.127,0L75.74,11.4a20.055,20.055,0,0,1,4.424-1.472" transform="translate(-59.654 0.006)" fill="#fff"/>
      <path id="Caminho_896" data-name="Caminho 896" d="M42.111,169.238a11.442,11.442,0,0,1-4.4-3.238l-.367,2.135-.717,4.18a3.416,3.416,0,0,0,4.966,3.6l9.595-5.043c.078-.041.155-.078.235-.112a19.694,19.694,0,0,1-9.312-1.522" transform="translate(-28.807 -129.027)" fill="#fff"/>
      <path id="Caminho_897" data-name="Caminho 897" d="M98.033,64.608,88.345,63.2a8.55,8.55,0,0,1,1.637,7.392,7.838,7.838,0,0,1-5.907,6.371c-5.08,1.554-10.173,1.146-15.268.1-.363-.076-.723-.168-1.079-.237a1.179,1.179,0,0,0-.345.069,4.962,4.962,0,0,0,3.375,5.771c4.951,1.695,9.5,2.405,21.119-4.335a3.243,3.243,0,0,1,.3-.328l7.762-7.556a3.416,3.416,0,0,0-1.893-5.829" transform="translate(-53.323 -48.949)" fill="#fff"/>
      <path id="Caminho_898" data-name="Caminho 898" d="M128.474,157.41a55.363,55.363,0,0,1-9.381,5.156,27.4,27.4,0,0,1-4.763,1.233,3.386,3.386,0,0,1,.993.341l9.595,5.043a3.418,3.418,0,0,0,4.966-3.6Z" transform="translate(-90.054 -122.292)" fill="#fff"/>
    </g>
    <line id="Linha_134" data-name="Linha 134" y2="32" transform="translate(139.747 63.5)" fill="none" stroke="#fff" stroke-width="1" opacity="0.27"/>
    <g id="layer1" transform="translate(-30.932 -249.384)">
      <g id="g3048" transform="translate(190.425 309.384)">
        <g id="Camada_x0020_1" transform="translate(0 0)">
          <path id="path2993" d="M185.02,619.413a20.28,20.28,0,0,1-.871-2.888c-.324-2.162.806-3.587,1.845-3.914,1.166-.324,1.62.26,2.072,1.62.583,2.072.648,4.786.452,8.672-.255,5.308-2.911,11.717-9.513,11.585-5.7-.125-8.22-3.816-8.482-9.447-.019-.414-.031-.83-.033-1.249v-.126a26.343,26.343,0,0,1,1.2-7.686c.583-2.009,1.1-2.724,2.913-3.109,1.423-.26,1.294,1.227.972,2.981a34.5,34.5,0,0,0-.776,10.159c.254,4.661,2.391,6.475,4.725,6.475,3.5.068,5.048-2.846,5.7-7.057A12.289,12.289,0,0,0,185.02,619.413Zm74.538,4.6c1.361,0,1.754,1.61,1.427,2.586a4.153,4.153,0,0,1-3.3,2.4C257.294,628.019,257.1,624.01,259.558,624.01ZM234.252,626.2c0-1.1-.586-2-1.293-2-.589,0-1.943.645-1.943,2.717a4.016,4.016,0,0,0,.841,2.724,3.356,3.356,0,0,0,2.4-3.437ZM214.116,613a1.9,1.9,0,0,0-2.007-1.746,2.57,2.57,0,0,0-2.263,2.909,1.9,1.9,0,0,0,1.945,1.947c1.419,0,2.454-1.619,2.324-3.109Zm10.528,3.8c-.112-1.81-.552-2.63-1.523-2.561-1.29.08-1.885,4.134-1.621,8.4.168,2.782.582,3.21.968,3.184.712-.042,2.422-5.012,2.176-9.02Zm42.941,6.814c-.8,3.329-3.235,8.224-6.864,8.224-.84,0-2.329-.326-2.329-1.168,0-.908,5.7-1.036,5.7-5.372,0-1.616-1.488-3.885-3.69-3.885-2.913,0-5.755,3.176-5.755,7.572,0,3.945,2.451,5.242,4.911,5.242,4.274,0,6.864-3.5,8.222-6.409.65,1.942,1.036,6.409,2.657,6.409.646,0,1.1-.324,1.879-2.072,1.937-4.34,3.816-9.326,6.408-9.326.968,0,.388,1.754,2.717,1.754a1.891,1.891,0,0,0,1.872-1.947c0-1.49-1.355-2.652-3.427-2.652-6.086,0-7.377,9.128-8.349,9.128-1.62,0-1.1-7.315-2.268-7.315-1.034.006-1.543,1.241-1.685,1.818ZM215.8,631.384a4.538,4.538,0,0,0,3.951-2.417,24.173,24.173,0,0,1-1.361-6.264c-.386-6.276,2.031-12.178,4.678-12.341,1.94-.118,3.493,1.718,3.671,4.694.478,7.819-2.127,11.084-3.427,13.9a4.631,4.631,0,0,0,3.82,2.949,2.506,2.506,0,0,0,1.621-.586,6.422,6.422,0,0,1-.262-1.876c0-4.531,2.914-8.353,5.439-8.353,2.007,0,3.172,2.654,3.172,4.405,0,2.068-1.75,3.755-4.337,5.374a3.109,3.109,0,0,0,2.008.777c3.693,0,5.626-4.468,7.056-8.549.258-.779.717-1.876,1.618-1.876,1.554,0,2.2,10.229,4.782,10.229,1.1,0,2.009-2.268,2.009-4.011,0-1.3-.453-1.427-.453-3.3,0-2.072,1.1-3.816,2.594-3.816.905,0,1.232.9,1.232,2,0,4.145-2.982,11.849-7.378,11.849-3.307,0-3.05-5.7-4.213-5.7-1.3,0-3.113,5.762-9.515,5.762a4.111,4.111,0,0,1-3.043-1.556,7.445,7.445,0,0,1-4.338,1.491c-2.391,0-3.427-2.46-4.4-2.46-1.168,0-2.458,2.525-6.346,2.525-3.109,0-3.625-4.139-4.723-4.139-.973,0-2.461,4.139-4.079,4.139-2.723,0-3.3-7.183-5.7-7.183-1.876,0-7.811,7.3-9.418,7.129-.647-.068-.92-.551-.851-1.2a45.794,45.794,0,0,1,1.175-4.427c.524-1.969,1-4.126,1.275-4.814a1.72,1.72,0,0,1,1.562-1.136c.291.028.378.57.468,1.017.327,1.6.784,3.233,1.3,3.233.909,0,3.913-5.763,5.659-5.763,2.14,0,2.4,9.065,5.307,9.065.973,0,1.688-1.164,2.332-2.591.067-2.4.713-5.819,2.655-5.819,1.361,0,2.009,3.04,1.036,5.7,0,3.168,2.072,3.945,3.431,3.945Z" transform="translate(-124.797 -603.068)" fill="#fff"/>
          <path id="path2995" d="M485.579,311.381a.624.624,0,0,1-.648-.319c-.13-.259-.086-.677-.331-.863a2.511,2.511,0,0,0,.7.072c.648,0,1.267-.446,1.743-.446a.372.372,0,0,1,.415.4C487.462,310.864,486.185,311.381,485.579,311.381Zm.319,1.626c1.5,0,2.863-1.2,2.863-2.244a.877.877,0,0,0-.821-.964.632.632,0,0,1,.143.461c0,.792-1.206,1.669-2.516,1.669a.55.55,0,0,0-.619.5c0,.4.387.575.948.575Zm-.115.6c.187,1.366,2.257,3.208,2.818,3.164.375-.032.519-1.784.519-3.164,0-.791.043-1.41-.374-1.554a3.286,3.286,0,0,1-2.966,1.554Z" transform="translate(-451.902 -302.931)" fill="#fff"/>
          <path id="path2997" d="M209.792,394.566c.489,0,.387-2.993,1.179-2.993.187,0,.245.187.245.417,0,.676-.332,1.669-.332,2.216,0,.273.072.36.2.36.346,0,.95-3.3,1.539-3.3.187,0,.273.187.273.375,0,.69-.877,2.676-.877,3.237,0,.087.029.159.1.159.359,0,1.079-1.553,1.309-2.33.13-.4.3-.619.461-.619.143,0,.273.159.273.49a12.173,12.173,0,0,1-1.355,3.826,9.6,9.6,0,0,0-1.251,3.077,1.525,1.525,0,0,0,.632,1.281c-.921-.057-1.294-.143-1.64-.862-1.54,3.064,2.834,2.762,1.337,5.48-.273-.489-2.431-.992-2.431-3.84,0-2.46,2.158-3.9,2.158-4.919a.656.656,0,0,0-.258-.532c-.478-.4-.49-.733-.863-.733-.273,0-.6.633-.259,1.2a.924.924,0,0,1,.216.478c0,.4-.634,1.481-1.079,1.481s-.791-1.106-.791-2.891c0-1.583.359-3.18.805-3.18.129,0,.172.086.172.2,0,.187-.057.558-.057,1.2C209.5,394.508,209.662,394.566,209.792,394.566Z" transform="translate(-208.293 -374.836)" fill="#fff"/>
          <path id="path2999" d="M244.269,402.676c.6,0,1.108-.447,1.108-1.435V399.77a2.515,2.515,0,0,1,.418-1.64,2.584,2.584,0,0,0-.043.576c0,1.237.69,2.087.69,3.28,0,.446-.129.69-.474.69s-.3-.3-.375-.3c-.057,0-.143.187-.143.388a.778.778,0,0,0,.819.776.987.987,0,0,0,.935-1.007c0-1.294-1.007-2.733-1.007-4.114a3.236,3.236,0,0,1,.288-1.324c0,2.863,2.431,4.949,2.431,6.142a.478.478,0,0,1-.5.49.47.47,0,0,1-.489-.461c0-.1-.014-.129-.057-.129a.736.736,0,0,0-.345.662,1.077,1.077,0,0,0,1.108,1.051,1.275,1.275,0,0,0,1.266-1.31c0-1.51-2.949-3.8-2.949-6.243a3.381,3.381,0,0,1,.374-1.612,4.942,4.942,0,0,0-2.488,4.272c0,1.238-.043,1.856-.676,1.856-.331,0-.418-.3-.532-.3-.086,0-.129.258-.129.33a.788.788,0,0,0,.776.835Z" transform="translate(-239.104 -378.731)" fill="#fff"/>
          <path id="path3001" d="M435.078,313.167a6.466,6.466,0,0,0,2.042-.447.782.782,0,0,1,.374-.1c.5,0,.375.575.835.575.359,0,.82-.3,1.094-.3.429,0,1.047,1.355,1.047,1.986,0,.733-1.106,1.18-2.416,1.18a3.072,3.072,0,0,1-3.064-2.748A.152.152,0,0,1,435.078,313.167Zm3.136,1.827c.634,0,1.109-.288,1.109-.461,0-.057-.086-.1-.273-.1a7.907,7.907,0,0,1-1.267-.13c-.6-.1-1.066-.331-1.239-.331-.057,0-.087.029-.087.072,0,.375.693.952,1.758.952Z" transform="translate(-408.119 -305.42)" fill="#fff"/>
          <path id="path3003" d="M243.384,497.628a2.094,2.094,0,0,0-1.238,2.044,4.011,4.011,0,0,0,4,3.582,2.342,2.342,0,0,0,2.618-2.433c0-2.172-1.337-3.7-3.077-3.7a1.735,1.735,0,0,0-1.8,1.711,2.382,2.382,0,0,0,2.431,2.374,1.212,1.212,0,0,0,1.28-1.236,1.594,1.594,0,0,0-1.453-1.539.422.422,0,0,0-.446.446c0,.344.474.691,1.064.691a.774.774,0,0,0,.319-.058.349.349,0,0,1,.043.173c0,.331-.319.532-.806.532a1.408,1.408,0,0,1-1.439-1.412c0-.516.446-.89,1.094-.89a2.139,2.139,0,0,1,2.042,2.273c0,1.02-.558,1.612-1.711,1.612-2.3,0-3.427-2.072-2.92-4.173Z" transform="translate(-237.914 -468.261)" fill="#fff"/>
          <path id="path3005" d="M295.053,532.873a6.782,6.782,0,0,0,.87-.057c.215,0,.23.129.23.216,0,.319-.705.705-1.957.705a1.27,1.27,0,0,1-1.31-.82,5.672,5.672,0,0,1-2.892.877c-2.949,0-3.7-1.282-4.617-1.7-.705-.319-1.784.3-3.294-1.381a3.633,3.633,0,0,0,.691.057c1.322,0,2.028-.646,2.028-1.683a3.672,3.672,0,0,0-.029-.4,2.856,2.856,0,0,1,1.541,2.072c.029.144.618.273.992.273a1.171,1.171,0,0,0,1.28-1.064,3.234,3.234,0,0,0,3.136-2.461,3.417,3.417,0,0,1,1.5,1.051,2.591,2.591,0,0,1,.862-.13,5.536,5.536,0,0,1,1.594.273c.03-.187.057-.418.346-.418.431,0,.319.478.461.747.072.144.432.23.432.518a.369.369,0,0,1-.375.375.628.628,0,0,1-.173-.029c-.288.1-.3,2.171-1.51,2.171a2.422,2.422,0,0,1-2.072-1.653.616.616,0,0,0-.518-.446c-.23,0-.359.043-.632.346a5,5,0,0,1-3.667,1.581c-.489,0-.877-.044-.979-.044-.058,0-.058.014-.058.029,0,.1.489.49,1.553.49,2.531,0,3.151-1.424,3.553-1.424a.333.333,0,0,1,.33.23,2.825,2.825,0,0,0,2.684,1.7ZM293.937,530a.575.575,0,1,0,.576-.576.575.575,0,0,0-.576.576Z" transform="translate(-273.164 -495.077)" fill="#fff"/>
          <path id="path3007" d="M441.907,483.023c-.2,0-.418.159-.418.548a.911.911,0,0,0,.518.79.887.887,0,0,0,.417.116c.418,0,.749-.116.749-.462C443.174,483.571,442.525,483.023,441.907,483.023Zm-1.552.891c-.3,0-1.974,2.232-3.05,2.232-.258,0-.478-.489-.478-.862,0-.2.129-.346.591-.447,2.471-.558,1.926-2.418,4.04-2.418A2.414,2.414,0,0,1,443.918,485c0,1.9-2.7,4.258-3.109,4.258-.331,0-.691-.478-.691-.791,0-.1.043-.23.332-.345a3.361,3.361,0,0,0,2.17-2.461.255.255,0,0,0-.259-.287c-.244,0-1.292,2.387-2.458,2.387-.807,0-1.628-.732-1.628-1.078,0-.576,2.333-1.64,2.333-2.446.007-.3-.135-.314-.251-.314Z" transform="translate(-409.742 -455.281)" fill="#fff"/>
          <path id="path3009" d="M208.272,312.813a1.726,1.726,0,0,1-.935.319,1.082,1.082,0,0,1-1.108-1.107,1.213,1.213,0,0,1,.762-1.137,1.418,1.418,0,0,0-.014.245,1.674,1.674,0,0,0,1.3,1.68Zm3.078,2.762a2.733,2.733,0,0,0-.647,1.654,1.293,1.293,0,0,0,1.209,1.424,1.089,1.089,0,0,0,1.036-1.222,2.125,2.125,0,0,0-1.594-1.856Zm-4.775.575a.31.31,0,0,0-.043.159.306.306,0,0,0,.273.273c.115,0,.187-.029.245-.029.345,0,.733.244,1.294.244a2.746,2.746,0,0,0,1.208-.344,3,3,0,0,0,1.439-2.014c0-.274-.22-.239-.4-.489s-.113-.473-.23-.59c-.066-.068-.273-.072-.532-.1a3.142,3.142,0,0,0-.319-.014,2.916,2.916,0,0,0-1.668.461c-1.246.8-1.062,2.114-1.263,2.445Zm3.38-1.784c.1.135.375.3.375.4,0,.2-.116.461-.346.461-.5,0-.906-.763-.906-1.2,0-.273.159-.3.374-.3a.347.347,0,0,1,.216.057c.131.073.131.36.289.577Zm-1.324,1.754a1.187,1.187,0,0,1-.992-1.122c0-.288.216-.647.374-.647.057,0,.087.044.1.144a1.636,1.636,0,0,0,.979,1.309c.043.029.072.043.072.072,0,.1-.273.246-.532.246Zm1.224-3.625a2.83,2.83,0,0,0,.129-.835c0-.69-.319-1.741-1.3-1.741a.956.956,0,0,0-.964.978c0,1.137,1.137,1.594,2.131,1.594Zm-3.726,5.754c0,1.093.331,1.612.921,1.612a3.222,3.222,0,0,0,1.812-.964,6.379,6.379,0,0,1-1.381.216,1.514,1.514,0,0,1-1.35-.861Zm.5-1.28a1.106,1.106,0,0,0-.014.216c0,.676.359,1.051.834,1.051a1.547,1.547,0,0,0,1.149-.691,3.042,3.042,0,0,1-.517.043,1.723,1.723,0,0,1-1.45-.617Zm3.524-.2a1.369,1.369,0,0,0-1.022,1.208.847.847,0,0,0,.906.849.94.94,0,0,0,.558-.144,1.674,1.674,0,0,1-.547-1.251,1.923,1.923,0,0,1,.106-.661Zm.518-3.941a.575.575,0,1,0,.575-.575.575.575,0,0,0-.575.575Zm.748,1.294a.575.575,0,1,0,.576-.575.576.576,0,0,0-.576.575Z" transform="translate(-206.128 -303.038)" fill="#fff"/>
          <path id="path3011" d="M400.716,352.328a.553.553,0,1,1,.27.5A.553.553,0,0,1,400.716,352.328Zm-5.051-4.43a.576.576,0,1,0,.575-.575.576.576,0,0,0-.575.575Zm-.489,2.028a.82.82,0,1,0,.819-.82.82.82,0,0,0-.819.82Zm1.813-.921a.873.873,0,1,0,.256-.621.877.877,0,0,0-.256.621Zm.073-1.87a.545.545,0,1,0,.544-.546.545.545,0,0,0-.544.546Zm2.6-1.38a.548.548,0,1,0,.548-.548.548.548,0,0,0-.548.548Zm-1.079,1.77a.921.921,0,1,0,.921-.921.921.921,0,0,0-.921.921Zm-1.48,3.366a.575.575,0,1,0,.573-.575.575.575,0,0,0-.573.575Zm1.883-1.152a.575.575,0,1,0,.576-.575.575.575,0,0,0-.576.575Zm-.532,2.029a.993.993,0,1,0,.993-.992.993.993,0,0,0-.993.992Zm2.072-1.224a.675.675,0,1,0,.674-.676.675.675,0,0,0-.674.676Zm-.043-1.813a.6.6,0,1,0,.6-.6.6.6,0,0,0-.6.6Z" transform="translate(-372.978 -334.181)" fill="#fff"/>
          <path id="path3013" d="M413.851,524.186a4.237,4.237,0,0,1-2.7.934,3.559,3.559,0,0,1-1.238-.245c-.144,0-.3.143-.461.331a3.246,3.246,0,0,0-.788,1.971,1.179,1.179,0,0,0,1.275,1.149c2.692,0,4.7-1.683,4.7-3.048C414.642,524.5,414.182,524.186,413.851,524.186Zm-.748-.159a.526.526,0,0,0,.143-.418v-.331c0-.418-.63-.661-1.495-.661-1.051,0-1.612.473-1.612.676v.662c0,.274.638.548,1.412.548a2.4,2.4,0,0,0,1.552-.475Zm-.116,1.424c.073,0,.159.042.159.3a1.261,1.261,0,0,1-.659,1.063,2.765,2.765,0,0,1-1.569.46,3.387,3.387,0,0,0,.2-1.048,2.743,2.743,0,0,0-.029-.332h.187a3.248,3.248,0,0,0,1.709-.446Z" transform="translate(-384.878 -490.761)" fill="#fff"/>
          <path id="path3015" d="M391.694,397.035c.159,1.222,1.8.6,1.8,2.084,0,.216-.057.533-.057.807,0,.319.028.59.271.59s.3-.172.3-.4-.058-.518-.058-.676a.558.558,0,0,1,.576-.619c.547,0,.964.558,1.785.558-.187.921-2.088.676-2.088,1.683,0,.5.5.618.835.618.3,0,.4-.043.4-.3,0-.145-.029-.3-.029-.4a.114.114,0,0,1,.116-.116c.319,0,1.868,1.18,1.868,1.54,0,.33-1.638.661-2.113.661a.153.153,0,0,1-.173-.159c0-.1.245-.4.245-.575,0-.13-.216-.216-.792-.216-.273,0-.478.029-.478.245,0,.387.634.862.634,1.222,0,.289-.172.461-.634.461-.389,0-.976-.3-.976-.806,0-.4.415-.805.415-1.05a.2.2,0,0,0-.227-.187c-.533,0-.677,1.409-2.563,1.568a1.445,1.445,0,0,0,.558-1.2c0-.3-.071-.548-.071-.877,0-.432.2-.648.489-.648.532,0,.791.748,1.137.748a.415.415,0,0,0,.389-.431c0-1.094-2.1-.935-2.1-2.471a3.561,3.561,0,0,1,.538-1.651Zm6.861,4.215c0,.359.116.776.478.776.3,0,.558-.459.558-.964,0-.575-.1-1.022-.1-1.252,0-.1.043-.143.1-.143.216.014.418.6.648.6.259,0,.645-.478.8-.478.044,0,.057.058.057.072,0,.216-.332.692-.332.877,0,.159.835.187.835.331,0,.216-.877.216-1.293.4-.4.172-.649.388-.649.676s.289.345.692.345a5.717,5.717,0,0,0,1.853-.517.067.067,0,0,1,.072.072c0,.144-.489.619-.489.835,0,.244.893.531.877.676-.014.043-.072.057-.172.057-.159,0-.4-.043-.591-.043a.332.332,0,0,0-.26.072c-.1.116.03.877-.171.877s-.677-1.7-1.782-1.7c-.159,0-.273.13-.273.345a2.166,2.166,0,0,0,1.1,1.558c.239.159.645.319.645.4,0,.171-.918.014-.918.3,0,.259.115.648.115.877,0,.072-.014.159-.1.159-.172,0-.591-.791-.792-.791-.172,0-.547.478-.705.478a.08.08,0,0,1-.072-.085c0-.331.532-1.079.532-1.812,0-.345-.043-1.094-.461-1.094-.345,0-.734.547-.907,1.094-.1.319-.029,1.539-.259,1.539s-.159-.82-.446-.82c-.212,0-.673.388-.831.388-.029,0-.058-.014-.058-.043,0-.172.418-.734.418-.849,0-.216-.95-.244-.95-.417,0-.1.374-.172.717-.23.732-.13,1.811-.662,1.811-1.409,0-.835-.806-1.2-1.336-1.54-.273-.172-.575-.319-.575-.43s.345-.116.489-.116c.216,0,.429-.014.429-.187,0-.13-.029-.388-.029-.59,0-.144.014-.259.073-.259.216,0,.518.7.662.7.23,0,.547-.575.764-.575.071,0,.1.043.1.172,0,.532-.273,1.136-.273,1.655Z" transform="translate(-369.079 -379.923)" fill="#fff"/>
          <path id="path3017" d="M369.076,458.754c.662.087.821.319.821.5,0,.319-.289.417-.562.417-.2,0-.432-.043-.676-.043a1.09,1.09,0,0,0-.892.374.493.493,0,0,1,.461.446c0,.835-2.316.143-2.316,2.288a2.744,2.744,0,0,0,2.963,2.374c.922,0,1.514-.3,1.514-.648,0-.273-.489-.087-.489-.319,0-.1.172-.289.172-.447,0-.069-.057-.2-.172-.2a5.761,5.761,0,0,1-1.742.416c-.776,0-1.54-.445-1.54-1.049,0-.129.058-.2.144-.2s.2.058.3.058.1-.058.1-.216,0-.6.273-.6a4.3,4.3,0,0,0,2.779,1.007,4.516,4.516,0,0,0,2.416-.558,3.74,3.74,0,0,1-3.842,3.667,4.059,4.059,0,0,1-4.129-4.145,4.235,4.235,0,0,1,4.259-4.2c.632,0,1.166.215,1.166.489,0,.375-.936.144-1.008.589Zm4.417.764a.855.855,0,0,1,.144.46c0,.4-.273.777-.273,1.2a.858.858,0,0,0,.9.862,1,1,0,0,0,.993-1.036c0-.763-.685-1.41-1.765-1.482Zm-4.763.92a.58.58,0,0,1,.187.431c0,.216-.1.446-.1.691a.632.632,0,0,0,.633.646.67.67,0,0,0,.677-.689,1.263,1.263,0,0,0-1.394-1.078Zm1.913-2.446a2.66,2.66,0,0,1,2.338,2.493,1.3,1.3,0,0,1-1.267,1.408,1.218,1.218,0,0,1-1.264-1.309c0-.6.472-1.237.472-1.856a1.116,1.116,0,0,0-.277-.737Zm.748,1.913a.345.345,0,0,0,.346.359.4.4,0,0,0,.374-.432c0-.3-.274-.717-.532-.717-.116,0-.072.173-.1.359-.012.144-.084.316-.084.432Z" transform="translate(-346.046 -433.444)" fill="#fff"/>
          <path id="path3019" d="M268.9,320.753c.489,0,1.049-2.647,1.049-3.093,0-.116-.042-.2-.143-.2-.446,0-1.064,2.518-1.064,3.079C268.745,320.638,268.774,320.753,268.9,320.753Zm3.525.791c.359,0,.762-1.381.762-2.245,0-.187-.029-.388-.116-.388-.3,0-.806,1.424-.806,2.2,0,.307.073.433.159.433Zm-2.346-1.28c.159,0,.359-.173.735-.59a3.751,3.751,0,0,0,.028-.576c0-.287-.115-.6-.288-.6-.432,0-.647,1.151-.647,1.454,0,.172.085.316.171.316Zm1.971-.59c0-.246-.058-.3-.115-.3-.144,0-.3.173-.532.558.029.518.115.748.259.748s.387-.5.387-1Zm1.108-1.7c.949,0,1.381.82,1.381,1.741,0,.4-.114.992-.3.992s-.159-.331-.187-.634c-.029-.388-.1-.478-.23-.478-.245,0-.4.575-.4,1.108,0,.33.057.7.319.7a.524.524,0,0,0,.36-.159,1.287,1.287,0,0,1-1.238,1.237c-1.266,0-1.741-1.482-1.884-2.345a3.494,3.494,0,0,1-2.734,1.4,1.62,1.62,0,0,1-1.711-1.683c0-.245.086-.877.389-.877.359,0,.043,1.179.748,1.179.173,0,.489-.143.662-.618a2.673,2.673,0,0,0,.159-.849c0-.389-.086-.633-.374-.633a1.127,1.127,0,0,0-.648.287,2.167,2.167,0,0,1,2.1-1.568c1.137,0,1.742,1.007,1.742,2.129a2.817,2.817,0,0,1-.043.489,2.506,2.506,0,0,1,1.9-1.424Z" transform="translate(-259.436 -309.093)" fill="#fff"/>
          <path id="path3021" d="M266.9,359.9c-.619,0-.647.749-.647,2.259-.461-.992-1.223-2.057-2.115-2.057-.6,0-.834.4-.834,1.107a2.685,2.685,0,0,0,.043.489.545.545,0,0,1,.589-.345,2.623,2.623,0,0,1,1.856,1.122,9.556,9.556,0,0,0-1.568-.2,1.807,1.807,0,0,0-.763.13,1.913,1.913,0,0,0-.978,1.741,2.9,2.9,0,0,0,.043.478,3.1,3.1,0,0,1,2.7-1.626,2.7,2.7,0,0,1,.4.029,2.343,2.343,0,0,0-.575,1.582c-.014.23-.1.246-.259.246,0,.474.375,1.18.375,1.539a.3.3,0,0,1-.143.273c0,.633.632,1.094.632,1.5a.337.337,0,0,1-.072.23c.044.259.74.694.83.913.111.265.235.31.307.31.245,0,.632-.289.632-.548a.343.343,0,0,0-.128-.23,2.119,2.119,0,0,1-.532-.92.269.269,0,0,1-.277-.212c-.08-.3-.08-.853-.2-1.184-.186-.043-.273-.116-.273-.5,0-.187.116-.921.116-1.18a.2.2,0,0,1-.2-.23c0-.46.461-.819.589-1.409a2.116,2.116,0,0,1,1.021,1.77,3.766,3.766,0,0,1-.1.82c.6-.3,1.514-.748,1.514-1.655,0-.532-.245-1.122-1.871-1.355a5.081,5.081,0,0,1,1.669-.288c.921,0,1.453.288,1.568.934a1.794,1.794,0,0,0,.331-.92,1.216,1.216,0,0,0-1.338-1.165,4.591,4.591,0,0,0-2.489,1.021c.375-.777.633-1.237,1.094-1.237a1.11,1.11,0,0,1,.216.029C267.9,360.523,267.249,359.9,266.9,359.9Z" transform="translate(-255.869 -347.152)" fill="#fff"/>
          <path id="path3023" d="M486.839,448.243c.717,0,1.3.935,1.3,2.029a4.521,4.521,0,0,1-1.523,3.293c-.014-1.942-2.391-1.323-2.391-2.732a.957.957,0,0,1,.951-1.007,1.458,1.458,0,0,1,1.08.389,1.275,1.275,0,0,1-.389-.921.978.978,0,0,1,.976-1.05Z" transform="translate(-451.567 -425.118)" fill="#fff"/>
          <path id="path3025" d="M394.319,313.9a1.53,1.53,0,0,0,1.108.517c.159,0,.347-.042.447-.042.13,0,.215.057.215.159a.905.905,0,0,1-.319.558,1.446,1.446,0,0,0,.558.1,1.693,1.693,0,0,0,1.754-1.813,1.921,1.921,0,0,1,.274.921,2.063,2.063,0,0,1-2.214,2.172,3.1,3.1,0,0,1-1.124-.231c-.273,0-.258.548-.446.533-.331-.057-.633-.792-.633-1.568a2.291,2.291,0,0,1,.379-1.307Zm2.171-1.051a1.073,1.073,0,0,0-.745-.288,1.163,1.163,0,0,0-1.153.849,1.356,1.356,0,0,1-.1-.489,1.39,1.39,0,0,1,1.483-1.409,2.524,2.524,0,0,1,1.408.489c.143,0,.288-.144.4-.144.159,0,.159.245.159.418a2.359,2.359,0,0,1-.907,1.927,1.466,1.466,0,0,0-.717-.691.228.228,0,0,1-.143-.216.581.581,0,0,1,.313-.441Z" transform="translate(-371.891 -304.445)" fill="#fff"/>
          <path id="path3027" d="M219.42,256.628a7.851,7.851,0,0,0,2.143,2.964c.289,0,.5-.5.5-.936a.588.588,0,0,0-.086-.319,8.424,8.424,0,0,0-2.489-1.8.08.08,0,0,0-.072.086Zm-10.573-1.482a2.748,2.748,0,0,1-1.481,1.251c-.143,0-.187-.172-.187-.33a1.275,1.275,0,0,1,.289-.821,1.607,1.607,0,0,1,.949-.258C208.615,254.989,208.847,255.032,208.847,255.146Zm13.135.835c0-.863-2.335-2.431-2.36-3.109a.254.254,0,0,1,.08-.179c.4-.422,2.06-.729,2.06-1.089,0-.187-.346-.187-.518-.187-1.337,0-3.294.489-3.294.964,0,.49,1.754,1.683,1.754,2.274,0,.159-.1.216-.259.216-.489,0-1.553-.591-2.056-.591-.23,0-.319.159-.319.389,0,.69.82,2,.82,2.386,0,.044-.014.1-.072.1-.259,0-1.481-1.435-1.913-1.435-.159,0-.172.215-.172.532v.489c0,.331-.014.532-.171.532-.375,0-.548-1.05-.907-1.05s-.446,1.87-.805,1.87c-.418,0-.058-2.057-.461-2.057-.446,0-.949,1.367-1.267,1.367-.115,0-.143-.116-.143-.216,0-.417.244-1.093.244-1.5,0-.2-.057-.319-.23-.319-.446,0-1.424.717-1.8.717-.057,0-.129-.029-.129-.087,0-.344,1.568-1.435,1.568-1.927s-2.158-.159-2.158-.705c0-.46,1.541-.935,1.541-1.409,0-.418-1.828-.6-2.531-.6-.849,0-1.31.1-1.31.344,0,.375,1.928.49,1.928.82s-2,1.165-2,1.655c0,.432,2.819.029,2.819.478,0,.489-2.459,2.6-2.459,3.308,0,.159.115.23.273.23.748,0,2.689-1.424,3.222-1.424.187,0,.2.23.2.431,0,.374-.129.949-.129,1.367,0,.33.086.558.373.558.533,0,1.021-.906,1.382-.906.46,0,.187,2.661.877,2.661.589,0,.834-2.877,1.208-2.877s.677.834,1.022.834c.431,0,.23-1.453.691-1.453.5,0,1.942,1.726,2.589,1.726.2,0,.273-.159.273-.36,0-.763-1.064-2.488-1.064-3.034,0-.143.042-.187.2-.187.558,0,2.2.776,2.978.776.26,0,.418-.143.418-.331Zm-1.5-2.848c0,.258.906.82,1.324.82.244,0,.319-.332.319-.677,0-.431-.187-.446-.558-.446-.481,0-1.085.13-1.085.3Zm-3.38-1.467c0-.087-.431-.173-1.021-.173-.935,0-.806.778-1.525.778-.748,0-.562-.807-1.514-.807-.575,0-1.107.1-1.107.23,0,.173.676.1.676.576,0,.5-1.453.647-1.453.949,0,.1.115.143.259.143.319,0,.82-.143,1.18-.143.2,0,.389.042.389.23,0,.359-.777,1.008-.777,1.3,0,.086.072.116.143.116.289,0,.777-.734,1.238-.734.763,0,.26,1.625.676,1.625.431,0,.245-1.594.863-1.594.5,0,.877,1.108,1.223,1.108a.159.159,0,0,0,.159-.173c0-.3-.431-.921-.431-1.323,0-.245.172-.36.4-.36.33,0,.776.2,1.02.2.086,0,.172-.029.172-.129,0-.345-1.275-.717-1.275-1.165s.7-.446.7-.651Z" transform="translate(-206.99 -251.356)" fill="#fff"/>
          <path id="path3029" d="M466.984,254.212c0,1.279-.933,2.258-2.618,2.531.187.014.36.014.533.014,1.97,0,2.69-.891,2.69-1.64A.914.914,0,0,0,466.984,254.212Zm-2.43,1.452c0-1.021-2.444-1.28-2.444-1.51,0-.187,1.365-.5,2.072-.518-1.078-1.381-2.616-1.236-2.616-1.481a4.44,4.44,0,0,1,2.214-.432c.892,0,1.726.2,1.726.877,0,.375-.3.764-.3,1.338a.532.532,0,0,0,.575.59c.447,0,.547-.478.547-.979,0-.416-.072-.733-.072-.935a.956.956,0,0,1,1-1.007c.489,0,.6.214,1.325.214a1.1,1.1,0,0,0-.533.849,15.642,15.642,0,0,1,.39,2.259c0,2.272-2.129,3.077-4.734,3.077a14.95,14.95,0,0,1-2.232-.172c-.114-.014-.143-.043-.143-.115,0-.187,1.023-.289,1.023-1.208a7.157,7.157,0,0,0-.116-.835.114.114,0,0,1,.116-.116c.216,0,.648.834,1.451.834a.685.685,0,0,0,.748-.733Zm2.344-3.179a.36.36,0,1,0,.359-.36.356.356,0,0,0-.36.361Z" transform="translate(-431.365 -251.572)" fill="#fff"/>
          <path id="path3031" d="M453.827,349.25c0-.3-.764-.33-.835-1.18-.015-.129-.058-.359-.217-.359-.258,0-.057.792-.345.792-.662,0-.877-1.3-1.121-1.3-.057,0-.127.043-.127.216s.029.259.029.446-.044.319-.216.319c-.389,0-.734-.907-1.066-.907a.131.131,0,0,0-.143.116c0,.173.288.489.288.647,0,.346-.936.159-.936.446,0,.13.129.172.3.172.3,0,.778-.128,1.023-.128.144,0,.359.029.359.214,0,.2-.518.46-.518.647a.145.145,0,0,0,.159.129c.389,0,1.077-.676,1.566-.676.086,0,.3.043.3.173,0,.187-.489.517-.489.791a.146.146,0,0,0,.13.159c.258,0,.6-.676,1.093-.676.187,0,.461.072.6.072C453.784,349.365,453.827,349.293,453.827,349.25Zm.374,6.977a8.75,8.75,0,0,1,.99-2c-.471-.244-1.725-.763-1.725-1.611a2.226,2.226,0,0,1,1.494-1.77c.116,0,.144.1.144.288,0,.517-.245,1.355-.245,1.8,0,.4.259.792.489.792s.921-.863.921-1.712a1.939,1.939,0,0,0-1.754-1.986,8.4,8.4,0,0,1-2.749.632c-3.092,0-3.8-3.063-3.8-4.4,0-.057.014-.072.028-.072a2.2,2.2,0,0,0,1.355.375c.5,0,.964-.13,1.7-.13,1.723,0,2.487,1.2,3.553,2.719.644.4,2.186,1.051,2.186,2.877,0,1.611-1.714,2.5-2.127,4.229.659-.072,1.048-1.252,1.724-1.252.346,0,.5.273.5.706a3.131,3.131,0,0,1-1.051,2.172.967.967,0,0,0,.014-.216c0-.4-.159-.977-.619-.977-.717,0-.947.776-1.349,1.423a6.875,6.875,0,0,0-1.986-3.6c-1.019-.819-2.776-.374-2.776-1.87,0-.4.26-.978.26-1.435a.675.675,0,0,0-.116-.418c1.383.518.893,1.435,1.743,2.391.529.6,2,1.18,2.847,3.667a2.709,2.709,0,0,0,.029-.388c0-2.129-2.818-4.216-3.063-5.079,1.637.187,1.925.59,2.7,2.748a8.987,8.987,0,0,1,.677,2.1Z" transform="translate(-419.574 -335.044)" fill="#fff"/>
          <path id="path3033" d="M397.566,257.212c-1.008,0-1.674-.5-1.674-.763a.2.2,0,0,1,.2-.215c.319,0,1.008.489,1.237.489.058,0,.1-.028.1-.115,0-.259-.245-.69-.245-.905,0-.058.043-.1.129-.1.388,0,.964.159,1.267.159.1,0,.129-.057.129-.116,0-.319-.936-.935-.936-1.122,0-.172,1.164-.432,1.164-.7,0-.289-1.581-.087-1.581-.36,0-.2.3-.547.3-.7,0-.073-.058-.1-.159-.1a11.375,11.375,0,0,1-1.109.273c-.143,0-.319-.029-.319-.23,0-.331.558-.69,1.44-.69,1.422,0,2.272.978,2.272,2.618A2.284,2.284,0,0,1,397.566,257.212Zm-2.8-2.732c0-.159-.562-.461-.562-.633,0-.029.028-.043.072-.043.159,0,.433.057.649.057.187,0,.216-.806.357-.806.1,0,.273.763.432.763.187,0,.532-.216.676-.216.029,0,.057.014.057.044,0,.1-.359.489-.359.6s.807.288.807.4c0,.144-.821.13-.821.259,0,.1.3.5.3.633a.039.039,0,0,1-.043.044c-.116,0-.558-.2-.691-.2-.159,0-.414.59-.544.59-.043,0-.072-.057-.072-.13l-.029-.575a.1.1,0,0,0-.1-.116c-.173,0-.5-.014-.606-.014-.072,0-.1-.014-.1-.043,0-.115.576-.517.576-.619Zm-.418,2.358c.231,0,.274.558.319.892.029.173.057.187.13.187.173,0,.446-.662.63-.662a5.6,5.6,0,0,0,2.232.763,3.278,3.278,0,0,0,3.381-3.38,3.2,3.2,0,0,0-3.5-3.309,10.584,10.584,0,0,0-2.044.478c-.227.014-.572-.558-.745-.558-.072,0-.143.143-.143.388,0,.159,0,.662-.173.662-.346,0-1.683-.992-1.683-.633,0,.331.891,1.338.891,1.594s-.877.5-.877.676c0,.319.935.374.935.777s-.979.717-.979,1.021c0,.244.979.072.979.374s-.717,1.309-.717,1.594c0,.073.014.073.071.073.268,0,1.086-.937,1.29-.937Z" transform="translate(-370.807 -251.249)" fill="#fff"/>
          <path id="path3035" d="M316.568,506.037a.658.658,0,0,1-.159.417,1.059,1.059,0,0,0-.806-.431c-1.482,0-.921,2.143-2.5,2.143a7.513,7.513,0,0,1-.964-.087c-.1,0-.159.043-.159.13,0,.375.532,1.294,2.014,1.294s2.906-.905,2.906-2.029a1.5,1.5,0,0,0-.13-.588.422.422,0,0,1,.332-.144c.23,0,.359.26.575.26a.394.394,0,0,0,.4-.4.435.435,0,0,0-.273-.4.5.5,0,0,0,.2-.388.457.457,0,0,0-.461-.478.411.411,0,0,0-.319.143c-.028-.257-.172-.5-.446-.5a.372.372,0,0,0-.375.4c0,.228.159.416.159.661Z" transform="translate(-299.548 -475.187)" fill="#fff"/>
          <path id="path3037" d="M276.033,481.3c1.151.286,1.726.9,1.841,1.639a3.2,3.2,0,0,0,.532,1.568,2.486,2.486,0,0,0,1.683.761c.518,0,.934-.171.934-.646a1.974,1.974,0,0,0-1.74-1.683c-.1,0-.23.015-.374.015a.69.69,0,0,1-.431-.13c-.23-.2-.3-1.281-.733-1.928a1.809,1.809,0,0,0-1.7-.921c-.5,0-1.065.273-1.065.676C274.983,480.9,275.112,481.07,276.033,481.3Zm4.014,3.222c-.432,0-1.079-.461-1.079-.717a.349.349,0,0,1,.359-.332c.36,0,1.007.447,1.007.821C280.337,484.393,280.261,484.522,280.047,484.522Z" transform="translate(-266.897 -453.126)" fill="#fff"/>
          <path id="path3039" d="M305,398.384c0-.921,2.187-1.409,2.187-2.547a1.876,1.876,0,0,0-.2-.762,2.311,2.311,0,0,1,1.323,1.7c0,.992-1.036,1.453-1.036,2.072,0,.717,1.108.835,1.108,1.726,0,.733-1.051,1.582-1.051,2.531a1.435,1.435,0,0,0,1.309,1.435,3.321,3.321,0,0,1-.733.1,2.935,2.935,0,0,1-2.949-2.618,2.453,2.453,0,0,1,.762-1.769,2.058,2.058,0,0,0,1.065.575c.23,0,.332-.115.332-.287C307.112,400.009,305,399.52,305,398.384Zm4.59,7.265c-.493.226-.69.187-.69.691,0,.187-.043.43-.043.558,0,.172.029.273.23.273a1.841,1.841,0,0,0,1.338-1.626c0-.2-.116-.287-.245-.287s-.245.232-.591.391Zm-.057-1.036c0-.647-1.338-.662-1.338-1.64a2.246,2.246,0,0,1,.478-1.109,1.561,1.561,0,0,0,1.079,1.382A1.841,1.841,0,0,1,311.2,405.2a2.936,2.936,0,0,1-3.237,2.906,3.276,3.276,0,0,1-3.208-3.079c0-.389.1-.819.345-.819.216,0,.288.172.461.344a3,3,0,0,0,2.371.823c.924,0,1.6-.376,1.6-.765Z" transform="translate(-293.171 -378.193)" fill="#fff"/>
          <path id="path3041" d="M238.408,465.079a.547.547,0,1,1-.607-.478.547.547,0,0,1,.607.478Zm-2.689.566a.939.939,0,0,0,1.036.806,1.184,1.184,0,0,0,.478-.143.886.886,0,0,0,1.023.688.912.912,0,0,0,.833-1.019,1.037,1.037,0,0,0-.086-.331s.07-.007.123-.018a.956.956,0,0,0,.827-1.019.934.934,0,0,0-1.006-.842.906.906,0,0,0-.478.2.969.969,0,0,0-1.089-.717.929.929,0,0,0-.781,1.046.948.948,0,0,0,.072.287l-.143.021a.969.969,0,0,0-.808,1.047Z" transform="translate(-232.238 -438.349)" fill="#fff"/>
        </g>
      </g>
    </g>
  </g>
</svg>
